# xmcd
#
# Track frame offsets: 
#        150
#        23007
#        49654
#        76161
#        97512
#        127553
#        155633
#        192184
#        228986
#        269020
#        291688
#
# Disc length: 4142 seconds
#
# Revision: 1
# Processed by: cddbd v1.5.2PL0 Copyright (c) Steve Scherf et al.
# Submitted via: ExactAudioCopy v0.95b3
#
DISCID=86102c0b
DTITLE=Primal Scream - Screamadelica CD4
DYEAR=2015
DGENRE=Alternative
TTITLE0=Movin' On Up
TTITLE1=Slip Inside This House
TTITLE2=Don't Fight It, Feel It
TTITLE3=I'm Losing More Than I'll Ever Have
TTITLE4=Damaged
TTITLE5=Screamadelica
TTITLE6=Loaded
TTITLE7=Come Together
TTITLE8=Higher Than The Sun
TTITLE9=Cold Turkey
TTITLE10=No Fun
EXTD=
EXTT0=
EXTT1=
EXTT2=
EXTT3=
EXTT4=
EXTT5=
EXTT6=
EXTT7=
EXTT8=
EXTT9=
EXTT10=
PLAYORDER=
